<svg xmlns="http://www.w3.org/2000/svg" xml:space="preserve" width="128" height="128" viewBox="0 0 24 24"><path fill="#c74e38" d="M12 18c2.481 0 4.5-2.019 4.5-4.5 0-2.66-3.958-7.143-4.126-7.332L12 5.748l-.374.42C11.458 6.357 7.5 10.84 7.5 13.5c0 2.481 2.019 4.5 4.5 4.5z"/><path fill="#000" d="M.77 15a.5.5 0 0 1-.487-.39A11.862 11.862 0 0 1 0 12C0 5.383 5.383 0 12 0c3.8 0 7.409 1.83 9.653 4.895a.5.5 0 1 1-.807.591A11 11 0 0 0 12 1C5.935 1 1 5.935 1 12c0 .827.087 1.631.258 2.39A.5.5 0 0 1 .77 15zM12 24c-3.8 0-7.409-1.83-9.653-4.895a.5.5 0 1 1 .807-.591A11 11 0 0 0 12 23c6.065 0 11-4.935 11-11 0-.838-.089-1.641-.266-2.384a.5.5 0 1 1 .973-.231c.194.819.293 1.699.293 2.615 0 6.617-5.383 12-12 12z"/><path fill="#000" d="M2.55 22a.5.5 0 0 1-.5-.492l-.05-3A.498.498 0 0 1 2.5 18h3a.5.5 0 0 1 0 1H3.008l.042 2.492a.5.5 0 0 1-.491.508H2.55zM21.5 6h-3a.5.5 0 0 1 0-1H21V2.5a.5.5 0 0 1 1 0v3a.5.5 0 0 1-.5.5z"/></svg>