<svg xmlns="http://www.w3.org/2000/svg" viewBox="0 0 1600 1600" width="1280" height="1280" fill="#000002" xmlns:v="https://vecta.io/nano"><path d="M1240 236h2.91c14.2.03 28.2.32 42.2 2.19l3.68.45c20 2.51 39.1 6.5 58.3 12.6l2.78.86c36.1 11.5 71 29 101 52.8 2.09 1.67 4.22 3.28 6.35 4.89 15.9 12.5 31 26.2 44.3 41.4l1.35 1.52c7.7 8.8 14.8 18 21.6 27.5l2.24 3.02c44.7 62.5 67.6 138 72.5 235 .18 4.56.46 9.1.83 13.7 3 36.5-.58 74.6-4.33 111l-.6 6.18c-3.88 40.6-10.6 80.8-20 121l-1.62 6.91c-8.37 35.8-19.1 71-31.9 105l-1.21 3.3c-6.99 18.8-14.8 37.3-22.8 55.7l-.91 2.12-2.77 6.38-.83 1.93c-2.58 5.91-5.47 11.6-8.4 17.4-1.82 3.62-3.54 7.27-5.24 10.9-5.43 11.7-11.6 23-17.8 34.2l-1.59 2.86c-10.8 19.4-21.9 38.7-34.2 57.2l-3.51 5.46c-4.93 7.8-10.1 15.4-15.5 22.9l-6.62 9.44c-7.34 10.6-15 20.9-23 31l-4.63 5.91c-12.3 15.7-25 30.9-38.6 45.5-2.1 2.29-4.15 4.61-6.17 6.96-2.68 3.09-5.5 5.96-8.41 8.81-1.78 1.81-3.43 3.67-5.07 5.59-3.73 4.3-7.68 8.34-11.7 12.4l-2.02 2.03c-3.98 3.97-8.07 7.76-12.4 11.4-1.41 1.24-2.75 2.57-4.07 3.92-1.63 1.57-1.63 1.57-3.63 1.57v2c-7.65 8.1-17 14.7-28.3 15.4-10.2-.4-17.2-7.27-23.8-14.3l-4.51-4.68-1.96-2.07c-1.98-1.96-4-3.77-6.1-5.58-4-3.48-7.79-7.13-11.5-10.9l-2.04-2.03-6.58-6.59-4.63-4.62-9.65-9.66-12.3-12.3-9.54-9.53-4.55-4.55-6.36-6.37-1.87-1.86c-3.73-3.75-7.25-7.61-10.7-11.6-2-2.29-4.16-4.39-6.37-6.48l-2.59-2.49-5.27-5c-6.77-6.58-12.4-13.9-13.9-23.5 1.25-7.35 4.01-13.7 7.88-20l1.29-2.16c4.31-7.13 8.81-14.1 13.3-21.2l5.1-8 1.28-2.01c8.12-12.8 14.8-26.5 21.7-40l1.73-3.36c4.64-9.09 8.73-18.4 12.6-27.8l.99-2.37c9.77-23.6 16.9-47.6 22.6-72.5l.54-2.24c1.01-4.23 1.82-8.47 2.46-12.8l.41-2.68c2.87-19.8 2.94-39.4 2.59-59.3l-2.48-.23c-31-2.88-31-2.88-44.5-5.77l-2.75-.58c-23.6-4.94-46.4-11.7-68.7-21l-1.92-.79c-8.21-3.41-15.9-7.33-23.6-11.9-2.85-1.64-5.73-3.09-8.72-4.47-21.2-10.4-40.8-25.7-58.4-41.3l-4.18-3.57c-3.81-3.32-7.34-6.92-10.9-10.5-2.31-2.33-4.61-4.57-7.18-6.6-2.87-2.41-5.18-4.94-7.6-7.79l-5-5.71c-8.73-9.79-16.6-20.1-24.2-30.8l-1.34-1.89c-31.3-44.2-49.9-95-58.7-148l-.48-2.84c-2.37-14-3.22-28-3.52-42.2l-.05-2.13c-.09-4.3-.03-8.58.05-12.9l.01-2.32c.23-59 18.6-118 48-169l1.3-2.27c7-12.2 15.2-23.3 23.9-34.4l4.64-6.09c5.1-6.84 10.6-13.1 16.4-19.3 2.09-2.24 4.08-4.49 6.04-6.85 8.74-10.1 19.3-18.8 29.7-27.1l5.32-4.44c12.2-9.93 25.3-18.4 38.7-26.6l2.29-1.41c52.2-32 115-47.9 176-47.8zm-181 111l-5.32 4.11c-5.86 4.51-11.4 9.01-16.6 14.4-1.89 1.93-3.87 3.7-5.92 5.46-3.46 2.99-6.76 6.03-9.88 9.38v2h-2c-2.58 2.41-4.74 5.28-7 8l-1.4 1.67c-51.6 61.7-79.2 141-72.7 222 6.38 67.5 33 133 80.1 182l3.63 4.19c6.25 7.18 13.1 13.6 20.4 19.8l2.76 2.42c28.3 24.7 61.6 43.2 97 55.8l5.98 2.18c27.6 9.86 57.2 13.4 86.3 14.9 19.7 1.06 19.7 1.06 27 8.69 10.7 15.4 10.4 38.5 10.3 56.7l-.01 2.27c-.21 38.1-6.96 75.6-19.2 112l-3.27 10.2c-13.5 42.6-34.2 83.7-58.4 121l-1.16 1.82-3.04 4.66c-1.39 2.37-1.39 2.37-1.22 4.61 1.39 2.71 3.28 4.21 5.61 6.17 3.08 2.59 5.84 5.22 8.43 8.28 4.39 5.06 9.11 9.76 13.9 14.5l2.83 2.82 7.38 7.36 7.49 7.47 11 11 9.4 9.39 2.5 2.5 19.5 19.5 2.2-2.2 7.64-7.6 5.54-5.51 2.79-2.77c4.62-4.61 9.13-9.24 13.4-14.2 1.54-1.77 3.17-3.39 4.86-5.01 3.76-3.7 7-7.77 10.3-11.9 2.18-2.66 4.44-5.22 6.75-7.76 4.15-4.55 8.1-9.25 12-14a323.03 323.03 0 0 1 5.95-6.9c3.55-4.04 6.88-8.21 10.2-12.5l1.81-2.35c10.8-14.1 21.2-28.4 31.1-43.1l4.27-6.2c18.1-25.9 34.4-53.1 49.2-81l1.07-2.01c14.3-27 28.4-54.1 39.6-82.6l4.23-10.4c5.47-13.1 10.5-26.3 15-39.8l3.59-10.4c10.5-30.4 19.3-61.6 25.8-93.2l2.1-9.68c9.35-42 15.2-85.9 16.6-129l.33-7.64c3.19-80 .26-160-33.3-234l-1.26-2.79c-14.3-30.9-34-61.7-58.8-85.3-1.9-1.88-1.9-1.88-3.9-4.88h-2l-1-3c-1.48-1.55-1.48-1.55-3.37-3.07-3.4-2.87-6.68-5.83-9.94-8.87-5.28-4.81-10.8-8.96-16.7-13.1l-3.34-2.44c-7.67-5.58-15.5-10.7-23.7-15.6l-3.18-1.92c-29.5-17.4-61.3-27.5-94.8-34.1l-2.33-.48c-79.7-15.8-170 7.95-233 58.2zM353 236h2.91c13.8.03 27.4.3 41.2 2.19l3.61.45c57.2 7.26 111 28.2 157 62.6l1.83 1.35c7.42 5.51 14.4 11.4 21.2 17.6l3.88 3.37c9.46 8.29 18.4 16.8 26.8 26.1l3.69 3.98c6.86 7.37 12.8 15.4 18.7 23.5l1.55 2.11c7.06 9.65 13.4 19.5 19.3 29.9l3.09 5.25c43.7 73.6 53.2 158 53.2 242v3.71c0 23.5-.39 47.1-2.56 70.5l-.35 3.96-1.28 13.5-.3 3.06c-1.72 17.5-4 34.8-6.82 52.1l-.59 3.64a885.98 885.98 0 0 1-13.3 66.2l-1.06 4.44c-16.1 66.8-39.2 132-70 194l-4.22 8.54c-8.31 16.9-16.8 33.6-26.3 49.9-1.84 3.2-3.6 6.44-5.36 9.68-3.78 6.94-7.79 13.6-12.2 20.1-3.16 4.63-6.06 9.36-8.93 14.2-6.14 10.2-13 19.9-19.8 29.6l-5.92 8.47-1.87 2.7-3.46 4.97c-6.23 8.94-13.1 17.4-20 25.8-3.25 3.97-6.38 8.01-9.44 12.1-9.05 12.1-19.2 23.4-29.4 34.6l-5.58 6.36c-3.11 3.59-6.43 6.91-9.84 10.2-1.68 1.59-1.68 1.59-2.6 3.67h-2l-2 4h-2l-1 3h-2l-.81 1.8c-1.19 2.21-2.39 3.64-4.16 5.4l-1.77 1.77-1.88 1.84-1.94 1.91c-3.64 3.59-7.34 7.07-11.2 10.4-1.88 1.64-3.69 3.32-5.5 5.04l-1.84 1.73-3.57 3.43c-6.76 6.39-14.1 11.6-23.6 12-15-.5-24.4-14-34.2-23.9l-5.92-5.97-2.6-2.64a163.1 163.1 0 0 0-6.74-6.15c-3.97-3.45-7.72-7.07-11.4-10.8l-2-1.99-4.15-4.16-6.29-6.28-4.06-4.07-1.87-1.86c-2.98-2.99-5.85-6.03-8.59-9.24-4.1-4.73-8.55-9.08-13-13.5l-6.18-6.09-11.4-11.3-8.02-7.9-3.04-2.98c-7-6.8-13.1-13.7-15-23.5 0-8.79 3.74-16 8.32-23.2l1.57-2.57 14.2-22.4c8.08-12.7 15.1-25.8 22-39.1l5.37-10c6.2-11.2 10.9-22.8 15.4-34.7l3-7.45c18.2-44 24.9-90.1 24.1-137-2.44-1.23-4.39-1.32-7.11-1.58-60.1-5.97-119-23.8-169-58.4l-6-3.88c-5.35-3.56-10.2-7.51-15.1-11.7-2.63-2.23-5.3-4.38-8-6.51-9.03-7.19-17.3-15.2-25.5-23.3l-4.73-4.69-3.01-3-2.72-2.72C90.88 828 90.88 828 90.88 826h-2c-1.63-1.8-1.63-1.8-3.56-4.31a398.49 398.49 0 0 0-8.69-10.8c-17.6-21.4-32.1-45.9-43.8-70.9l-1.03-2.2c-39.5-85.1-41.5-184-9.46-271 3.86-10.1 8.47-19.9 13.2-29.7l3.05-6.51c3.82-8.12 8.5-15.7 13.2-23.4l2.03-3.31c4.38-7.08 9.06-13.8 14-20.5l3.09-4.23c5.63-7.61 11.4-14.8 17.9-21.8 3.13-3.5 6.22-7.01 9.13-10.7 3.74-4.62 8.19-8.6 12.6-12.6l2.89-2.68c2.42-2.01 2.42-2.01 4.42-2.01l1-3c1.98-1.84 1.98-1.84 4.63-3.94l3.02-2.41 1.64-1.29 5.29-4.27c38.7-31.5 83.2-53.6 131-66.1l2.39-.65c11.8-3.16 23.6-5.28 35.6-7.1l2.12-.33c16-2.42 31.7-3.13 47.8-3.11zm-139 83.2l-2.53 1.3c-22.2 11.5-43.2 26.6-61.5 43.7l-3 2.69c-12.4 11.2-23.7 23.2-33.7 36.6l-3.87 4.99c-39.8 51.3-59.7 116-59.6 181v2.76c.02 13.2.22 26.2 2.18 39.2l.39 2.68c9.89 66.3 40.8 124 86.6 172l2.15 2.27c4.36 4.5 9.05 8.46 14 12.4 2.3 1.87 4.52 3.79 6.73 5.76 50.5 44.4 118 65.6 184 68.9 10.2.55 20 1.37 27.4 9.27 7.53 10.6 8.56 25.8 9.52 38.4l.23 2.76c2.14 28.4-1.49 56.4-7.23 84.2l-.49 2.45c-2.99 14.9-6.92 29.3-11.6 43.8l-1 3.09c-13 40.2-31 78.5-52.9 115l-1.47 2.43-11.5 18.6c.3 3.56 1.92 5.28 4.39 7.74l2.19 2.21 2.43 2.4 2.54 2.54 6.92 6.88 7.22 7.2 13.7 13.6 15.6 15.5 32 31.9c3.32-1.27 5.59-2.21 7.96-4.88l1.6-1.77 1.69-1.92c5.36-5.91 10.9-11.6 16.6-17.2 5.43-5.37 10.5-10.8 15.2-16.8 2.07-2.59 4.24-5.03 6.47-7.47 3.85-4.23 7.47-8.59 11.1-13 2.72-3.31 5.51-6.55 8.32-9.78 5.42-6.29 10.6-12.7 15.7-19.3l4.61-5.95c10.6-13.8 20.6-28 30.3-42.3l8.14-11.7c4.08-5.8 7.69-11.9 11.4-18l6.15-9.94c7.67-12.2 14.6-24.6 21.4-37.3l5.28-9.51c17.3-30.5 31.1-62.7 44.2-95.2l1.41-3.48c7.71-19.2 14.2-38.8 20.6-58.5l.75-2.32c3.78-11.7 7.3-23.5 10.5-35.4l.7-2.59c8.24-30.7 15-62.2 19-93.7l.7-5.32c3.33-25.2 6.22-50.3 7.3-75.7l.33-6.61c3.9-82.3 1.62-171-38.4-246l-3.05-5.91c-8.71-17.1-19.1-32.8-30.9-47.9l-2.21-2.87c-4.68-5.95-9.67-11.6-14.8-17.1l-2.88-3.21c-6.05-6.68-12.2-12.9-19.1-18.8l-2.62-2.28c-13-11.1-26.7-21.3-41.5-29.7l-5.73-3.32c-29.1-16.9-61-28-94.1-33.7l-2.41-.43c-65-11.2-131 .38-190 30.4z"/></svg>