<!--#c74e38-->
<!--736849-->
<svg xmlns="http://www.w3.org/2000/svg" width="128" height="128" viewBox="0 0 25 24"><path fill="#736849" fill-rule="evenodd" d="M16.027 6.575a3.7 3.7 0 0 0-3.7-3.7 1.3 1.3 0 0 0-1.3 1.3 3.7 3.7 0 0 0 3.7 3.7 1.3 1.3 0 0 0 1.3-1.3Zm-3.7-2.7a2.7 2.7 0 0 1 2.7 2.7.3.3 0 0 1-.3.3 2.7 2.7 0 0 1-2.7-2.7.3.3 0 0 1 .3-.3Z"/><path fill="#736849" d="M15.027 6.575a2.7 2.7 0 0 0-2.7-2.7.3.3 0 0 0-.3.3 2.7 2.7 0 0 0 2.7 2.7.3.3 0 0 0 .3-.3Z"/><g fill="#736849" fill-rule="evenodd"><path d="M19.527.875a4.5 4.5 0 0 0-4.5 4.5v1a1.5 1.5 0 0 0 1.5 1.5h1a4.5 4.5 0 0 0 4.5-4.5v-1a1.5 1.5 0 0 0-1.5-1.5h-1Z"/><path fill="#fff" d="M5.36 11.875a2.5 2.5 0 0 1 2.5-2.5h7.667a2.5 2.5 0 0 1 2.5 2.5v.75a.5.5 0 0 1-1 0v-.75a1.5 1.5 0 0 0-1.5-1.5H7.861a1.5 1.5 0 0 0-1.5 1.5v10h6.833a.5.5 0 1 1 0 1H5.86a.5.5 0 0 1-.5-.5v-10.5Z"/><path fill="#fff" d="M7.027 7.375a.5.5 0 0 1 .5-.5h8.334a.5.5 0 0 1 .5.5v2.5a.5.5 0 0 1-.5.5H7.527a.5.5 0 0 1-.5-.5v-2.5Zm1 .5v1.5h7.334v-1.5H8.027ZM2.027 13.291a1.5 1.5 0 0 1 1.5-1.5h2.334a.5.5 0 0 1 .5.5v7.667a.5.5 0 0 1-.5.5H3.527a1.5 1.5 0 0 1-1.5-1.5v-5.667Zm1.5-.5a.5.5 0 0 0-.5.5v5.667a.5.5 0 0 0 .5.5h1.834v-6.667H3.527Z"/><path fill="#fff" d="M6.627 1.075a.5.5 0 0 1 .7-.1l1.704 1.278a1.5 1.5 0 0 1 .565.875l.92 4.139a.5.5 0 0 1-.977.216l-.92-4.138a.5.5 0 0 0-.188-.292L6.727 1.775a.5.5 0 0 1-.1-.7ZM16.027 16.625a2 2 0 0 0-2 2c0 .587.249 1.505.671 2.278.21.382.446.701.69.918.244.218.459.304.64.304.24 0 .54-.155.869-.54a.5.5 0 0 1 .76 0c.33.385.63.54.87.54.18 0 .396-.086.64-.304.244-.217.48-.536.69-.918.422-.773.67-1.69.67-2.278a2 2 0 0 0-3-1.733.5.5 0 0 1-.5 0 1.988 1.988 0 0 0-1-.267Zm-3 2a3 3 0 0 1 4.25-2.728 3 3 0 0 1 4.25 2.728c0 .794-.311 1.876-.793 2.758-.244.445-.546.867-.9 1.184-.354.316-.797.558-1.307.558-.48 0-.9-.213-1.25-.51-.349.297-.77.51-1.25.51-.51 0-.952-.242-1.306-.558-.355-.317-.657-.739-.9-1.184-.482-.882-.794-1.964-.794-2.758Z"/><path fill="#" d="M19.527 14.125a1.5 1.5 0 0 0-1.5 1.5v.5a.5.5 0 1 1-1 0v-.5a2.5 2.5 0 0 1 2.5-2.5h.5a.5.5 0 1 1 0 1h-.5Z"/></g></svg>