<!--c74e38-->
<svg xmlns="http://www.w3.org/2000/svg" fill="#fff" xml:space="preserve" width="128" height="128" viewBox="0 0 24 24"><path fill="#c74e38" d="m23.66 11.883-5.5-1.857a.5.5 0 0 0-.32 0l-5.5 1.857a.501.501 0 0 0-.34.474v4.179c0 4.918 5.568 7.325 5.806 7.425a.502.502 0 0 0 .388-.001c.237-.1 5.806-2.507 5.806-7.425v-4.179a.501.501 0 0 0-.34-.473z"/><path fill="#000" d="M10.24 20.56a.493.493 0 0 1-.26-.073C7.639 19.059 0 13.795 0 6.03A6.037 6.037 0 0 1 6.03 0C8.074 0 9.907.945 11 2.515 12.093.945 13.926 0 15.97 0A6.037 6.037 0 0 1 22 6.03c0 .83-.087 1.671-.26 2.502a.507.507 0 0 1-.592.388.501.501 0 0 1-.388-.592c.159-.764.24-1.537.24-2.298A5.035 5.035 0 0 0 15.97 1c-1.973 0-3.705 1.042-4.521 2.719-.168.344-.731.344-.899 0C9.735 2.042 8.002 1 6.03 1A5.035 5.035 0 0 0 1 6.03c0 7.245 7.272 12.244 9.5 13.604a.5.5 0 0 1-.26.926z"/><path fill="000" d="m17.5 19-.028-.001a.502.502 0 0 1-.363-.187l-2-2.5a.501.501 0 0 1 .781-.625l1.651 2.064 3.105-3.105a.5.5 0 0 1 .707.707l-3.5 3.5A.494.494 0 0 1 17.5 19z"/></svg>