<svg xmlns="http://www.w3.org/2000/svg" width="128" height="128" viewBox="0 0 24 24"><path d="M22.5 24h-21C.673 24 0 23.327 0 22.5v-21C0 .673.673 0 1.5 0h21c.827 0 1.5.673 1.5 1.5v21c0 .827-.673 1.5-1.5 1.5zM1.5 1a.5.5 0 0 0-.5.5v21a.5.5 0 0 0 .5.5h21a.5.5 0 0 0 .5-.5v-21a.5.5 0 0 0-.5-.5z"/><path d="M20.496 21.001h-3.517a.5.5 0 0 1-.5-.5V15.36c0-1.732-.192-2.506-1.333-2.506-1.176 0-1.613.653-1.613 2.41V20.5a.5.5 0 0 1-.5.5h-3.52a.5.5 0 0 1-.5-.5V9.535a.5.5 0 0 1 .5-.5h3.381a.5.5 0 0 1 .5.5v.23c.678-.571 1.648-1.016 2.884-1.016 4.161 0 4.722 2.982 4.722 5.899V20.5a.5.5 0 0 1-.5.5zm-3.017-1H20v-5.352c0-3.024-.623-4.899-3.722-4.899-1.526 0-2.512.844-2.892 1.566-.216.408-.992.228-.992-.233v-1.048h-2.381V20h2.521v-4.735c0-.844 0-3.41 2.613-3.41 2.333 0 2.333 2.28 2.333 3.506v4.64zM7.543 21h-4a.5.5 0 0 1-.5-.5v-11a.5.5 0 0 1 .5-.5h4a.5.5 0 0 1 .5.5v11a.5.5 0 0 1-.5.5zm-3.5-1h3V10h-3zM5.5 8.02C4.122 8.02 3 6.89 3 5.5 3 4.121 4.122 3 5.5 3S8 4.121 8 5.5c0 1.39-1.122 2.52-2.5 2.52zM5.5 4C4.673 4 4 4.673 4 5.5c0 .838.673 1.52 1.5 1.52S7 6.338 7 5.5C7 4.673 6.327 4 5.5 4z"/></svg>