<svg xmlns="http://www.w3.org/2000/svg" xml:space="preserve" width="128" height="128" viewBox="0 0 24 24"><path fill="#000" d="M4.001 12.27a.5.5 0 0 1-.498-.559l.177-1.541c0-.498-.351-.926-.833-1.019A3.564 3.564 0 0 1 0 5.67V5.1C0 2.288 2.288 0 5.1 0h13.8C21.712 0 24 2.288 24 5.1v.57c0 .812-.285 1.609-.803 2.245a3.507 3.507 0 0 1-2.041 1.235 1.035 1.035 0 0 0-.829 1.133l.119 1.019a.5.5 0 1 1-.993.117l-.12-1.021a2.036 2.036 0 0 1 1.633-2.229 2.514 2.514 0 0 0 1.454-.884A2.53 2.53 0 0 0 23 5.67V5.1C23 2.839 21.161 1 18.9 1H5.1A4.104 4.104 0 0 0 1 5.1v.57a2.56 2.56 0 0 0 2.04 2.5 2.035 2.035 0 0 1 1.623 2.251l-.167 1.407a.5.5 0 0 1-.495.442zM19.6 24H4.4c-.993 0-1.854-.667-2.05-1.587a2.055 2.055 0 0 1-.038-.68l.571-4.763a.5.5 0 1 1 .993.119l-.57 4.76a1.04 1.04 0 0 0 .022.352c.097.457.558.799 1.072.799h15.2c.515 0 .976-.342 1.071-.794.029-.129.036-.245.022-.359l-.649-5.427a.5.5 0 0 1 .437-.556.497.497 0 0 1 .556.437l.65 5.43c.026.229.014.453-.038.688C21.454 23.333 20.593 24 19.6 24z"/><path fill="#000" d="M8.608 21.001c-1.906 0-3.495-.746-4.743-2.231-1.582-1.884-1.793-4.164-.612-6.596a137.97 137.97 0 0 0 1.813-3.93l.224-.499c.976-2.173 2.467-3.373 4.56-3.67 2.281-.322 4.159.389 5.747 2.175 1.021 1.147 2.151 2.25 3.349 3.417.565.551 1.152 1.123 1.764 1.734a.5.5 0 0 1 .09.123c.962 1.848.927 3.848-.098 5.631-1.07 1.86-2.769 2.767-5.346 2.853a19.15 19.15 0 0 0-4.345.645 9.137 9.137 0 0 1-2.403.348zM10.887 5c-.289 0-.588.021-.896.065-1.75.248-2.953 1.229-3.788 3.09l-.224.498c-.595 1.324-1.19 2.649-1.825 3.958-1.011 2.079-.85 3.935.478 5.516 1.486 1.769 3.483 2.28 6.116 1.561a20.253 20.253 0 0 1 4.575-.68c2.228-.074 3.619-.799 4.512-2.351 1.066-1.854.66-3.517.112-4.604a193.059 193.059 0 0 0-1.699-1.67c-1.21-1.18-2.354-2.294-3.398-3.469C13.699 5.621 12.424 5 10.887 5z"/><path fill="#736849" d="M11 17c-2.206 0-4-1.794-4-4s1.794-4 4-4 4 1.794 4 4-1.794 4-4 4z"/></svg>