<svg xmlns="http://www.w3.org/2000/svg" viewBox="0 0 24 24" width="128" height="128" stroke="#000" xmlns:v="https://vecta.io/nano"><path d="M6.75 10.25A.75.75 0 0 1 6 9.5v-2a.75.75 0 1 1 1.5 0v2a.75.75 0 0 1-.75.75zm10.5 0a.75.75 0 0 1-.75-.75v-2a.75.75 0 1 1 1.5 0v2a.75.75 0 0 1-.75.75zm-7 3h-.5a.75.75 0 1 1 0-1.5h.5a1.25 1.25 0 0 0 1.25-1.25v-3a.75.75 0 1 1 1.5 0v3c0 1.517-1.233 2.75-2.75 2.75zm1.75 5a5.61 5.61 0 0 1-4.043-1.732.75.75 0 1 1 1.086-1.036A4.1 4.1 0 0 0 12 16.75a4.1 4.1 0 0 0 2.957-1.268.75.75 0 1 1 1.086 1.036A5.61 5.61 0 0 1 12 18.25zM.75 6.5A.75.75 0 0 1 0 5.75v-3C0 1.233 1.233 0 2.75 0h3a.75.75 0 1 1 0 1.5h-3A1.25 1.25 0 0 0 1.5 2.75v3a.75.75 0 0 1-.75.75zm5 17.5h-3C1.233 24 0 22.767 0 21.25v-3a.75.75 0 1 1 1.5 0v3a1.25 1.25 0 0 0 1.25 1.25h3a.75.75 0 1 1 0 1.5zm17.5-17.5a.75.75 0 0 1-.75-.75v-3a1.25 1.25 0 0 0-1.25-1.25h-3a.75.75 0 1 1 0-1.5h3C22.767 0 24 1.233 24 2.75v3a.75.75 0 0 1-.75.75zm-2 17.5h-3a.75.75 0 1 1 0-1.5h3a1.25 1.25 0 0 0 1.25-1.25v-3a.75.75 0 1 1 1.5 0v3c0 1.517-1.233 2.75-2.75 2.75z"/></svg>