<svg xmlns="http://www.w3.org/2000/svg" width="128" height="128" viewBox="0 0 24 24"><path d="M14.736 18c-.421 0-.874-.057-1.354-.171C9.687 16.946 5 12.747 5 9.284c0-1.549.783-2.372 1.118-2.723.542-.577 1.214-.594 1.805-.544h.003c.81 0 1.07.702 1.371 1.514.145.39.325.875.603 1.428.061.122.248.495.028.954-.302.57-.59.878-.78 1.081l-.082.089c.243.41.775 1.22 1.516 1.88a7.082 7.082 0 0 0 2.04 1.285c.092.04.166.072.22.099a.377.377 0 0 0 .104.035c-.029-.015.093-.175.199-.316.161-.212.37-.487.672-.822.434-.479.835-.418 1.208-.281.102.04 2.632 1.05 2.849 1.441.168.305.227 1.085-.169 1.868C17.128 17.408 16.097 18 14.736 18zM7.54 6.999c-.333 0-.519.062-.646.196C6.569 7.537 6 8.134 6 9.284c0 2.91 4.359 6.795 7.613 7.571 1.089.26 2.525.292 3.197-1.035.186-.367.2-.698.186-.866-.472-.254-2.031-.949-2.315-1.052l-.003-.001a.702.702 0 0 0-.123-.039c-.275.36-.466.612-.613.808-.37.486-.717.947-1.529.58a3.544 3.544 0 0 0-.188-.084c-.425-.184-1.308-.565-2.31-1.457-.892-.795-1.511-1.771-1.735-2.154-.356-.611.001-.993.238-1.245.172-.184.387-.414.617-.847-.332-.658-.522-1.172-.676-1.585-.266-.718-.346-.863-.479-.863a3.98 3.98 0 0 0-.34-.016zm9.567 8.021h.011z"/><path d="M.5 24a.5.5 0 0 1-.482-.633l1.57-5.706a11.877 11.877 0 0 1-1.491-5.764C.099 7.061 2.884 2.876 7.363.977c4.543-1.925 9.581-.979 13.149 2.469.05.048.089.105.114.167A11.789 11.789 0 0 1 24 11.903c-.002 4.211-2.173 8.019-5.807 10.186-3.62 2.159-7.973 2.29-11.685.361L.625 23.984A.482.482 0 0 1 .5 24zm6.071-2.583c.082 0 .164.021.237.06 3.435 1.855 7.499 1.763 10.872-.247 3.329-1.984 5.317-5.471 5.319-9.327 0-2.913-1.138-5.649-3.202-7.706a.493.493 0 0 1-.104-.15C16.425.979 11.868.153 7.753 1.898c-4.104 1.74-6.655 5.572-6.657 10 0 1.913.505 3.796 1.461 5.447a.503.503 0 0 1 .05.383l-1.396 5.07 5.233-1.365a.502.502 0 0 1 .127-.016z"/></svg>