<!--#9b7bac-->
<svg xmlns="http://www.w3.org/2000/svg" xml:space="preserve" width="128" height="128" viewBox="0 0 24 24"><path fill="#110638" d="M11.09 22H2.5A2.502 2.502 0 0 1 0 19.5v-17C0 1.121 1.121 0 2.5 0h19C22.879 0 24 1.121 24 2.5v9.77a.5.5 0 0 1-1 0V2.5c0-.827-.673-1.5-1.5-1.5h-19C1.673 1 1 1.673 1 2.5v17c0 .827.673 1.5 1.5 1.5h8.59a.5.5 0 0 1 0 1z"/><path fill="#110638" d="M23.5 5H.5a.5.5 0 0 1 0-1h23a.5.5 0 0 1 0 1zM19.5 9h-15a.5.5 0 0 1 0-1h15a.5.5 0 0 1 0 1zM13.22 13H4.5a.5.5 0 0 1 0-1h8.72a.5.5 0 0 1 0 1zM10.75 17H4.5a.5.5 0 0 1 0-1h6.25a.5.5 0 0 1 0 1z"/><path fill="#9b7bac" d="M18.5 24c-3.032 0-5.5-2.467-5.5-5.5s2.468-5.5 5.5-5.5 5.5 2.467 5.5 5.5-2.468 5.5-5.5 5.5z"/><path fill="#fff" d="M17.954 20.5a.5.5 0 0 1-.359-.152l-1.454-1.5a.5.5 0 0 1 .719-.695l1.07 1.104 2.189-2.579a.5.5 0 1 1 .762.646l-2.546 3a.504.504 0 0 1-.364.177l-.017-.001z"/></svg>