<?xml version="1.0" encoding="UTF-8"?>
<svg version="1.1" viewBox="0 0 1600 1600" width="1280" height="1280" xmlns="http://www.w3.org/2000/svg">
<path transform="translate(1240 236)" d="m0 0h2.91c14.2 0.03 28.2 0.32 42.2 2.19 1.82 0.22 1.82 0.22 3.68 0.45 20 2.51 39.1 6.5 58.3 12.6 1.38 0.43 1.38 0.43 2.78 0.86 36.1 11.5 71 29 101 52.8 2.09 1.67 4.22 3.28 6.35 4.89 15.9 12.5 31 26.2 44.3 41.4 0.45 0.5 0.89 1 1.35 1.52 7.7 8.8 14.8 18 21.6 27.5 1.11 1.5 1.11 1.5 2.24 3.02 44.7 62.5 67.6 138 72.5 235 0.18 4.56 0.46 9.1 0.83 13.7 3 36.5-0.58 74.6-4.33 111-0.21 2.06-0.41 4.12-0.6 6.18-3.88 40.6-10.6 80.8-20 121-0.54 2.3-1.08 4.61-1.62 6.91-8.37 35.8-19.1 71-31.9 105-0.4 1.09-0.8 2.18-1.21 3.3-6.99 18.8-14.8 37.3-22.8 55.7-0.3 0.7-0.6 1.4-0.91 2.12-0.92 2.13-1.84 4.25-2.77 6.38-0.27 0.64-0.55 1.27-0.83 1.93-2.58 5.91-5.47 11.6-8.4 17.4-1.82 3.62-3.54 7.27-5.24 10.9-5.43 11.7-11.6 23-17.8 34.2-0.52 0.94-1.05 1.89-1.59 2.86-10.8 19.4-21.9 38.7-34.2 57.2-1.19 1.81-2.35 3.63-3.51 5.46-4.93 7.8-10.1 15.4-15.5 22.9-2.24 3.13-4.44 6.28-6.62 9.44-7.34 10.6-15 20.9-23 31-1.55 1.96-3.09 3.93-4.63 5.91-12.3 15.7-25 30.9-38.6 45.5-2.1 2.29-4.15 4.61-6.17 6.96-2.68 3.09-5.5 5.96-8.41 8.81-1.78 1.81-3.43 3.67-5.07 5.59-3.73 4.3-7.68 8.34-11.7 12.4-0.67 0.67-1.33 1.34-2.02 2.03-3.98 3.97-8.07 7.76-12.4 11.4-1.41 1.24-2.75 2.57-4.07 3.92-1.63 1.57-1.63 1.57-3.63 1.57v2c-7.65 8.1-17 14.7-28.3 15.4-10.2-0.4-17.2-7.27-23.8-14.3-1.5-1.56-3-3.12-4.51-4.68-0.65-0.68-1.29-1.37-1.96-2.07-1.98-1.96-4-3.77-6.1-5.58-4-3.48-7.79-7.13-11.5-10.9-1.01-1-1.01-1-2.04-2.03-2.19-2.19-4.39-4.39-6.58-6.59-1.54-1.54-3.08-3.08-4.63-4.62-3.22-3.22-6.43-6.44-9.65-9.66l-12.3-12.3c-3.18-3.17-6.36-6.35-9.54-9.53-1.51-1.52-3.03-3.03-4.55-4.55-2.12-2.12-4.24-4.24-6.36-6.37-0.62-0.61-1.24-1.23-1.87-1.86-3.73-3.75-7.25-7.61-10.7-11.6-2-2.29-4.16-4.39-6.37-6.48-0.86-0.82-1.71-1.64-2.59-2.49-1.74-1.68-3.5-3.34-5.27-5-6.77-6.58-12.4-13.9-13.9-23.5 1.25-7.35 4.01-13.7 7.88-20 0.42-0.71 0.85-1.42 1.29-2.16 4.31-7.13 8.81-14.1 13.3-21.2 1.7-2.67 3.41-5.33 5.1-8 0.43-0.66 0.85-1.33 1.28-2.01 8.12-12.8 14.8-26.5 21.7-40 0.58-1.11 1.15-2.22 1.73-3.36 4.64-9.09 8.73-18.4 12.6-27.8 0.33-0.78 0.65-1.56 0.99-2.37 9.77-23.6 16.9-47.6 22.6-72.5 0.18-0.74 0.36-1.48 0.54-2.24 1.01-4.23 1.82-8.47 2.46-12.8 0.14-0.88 0.27-1.77 0.41-2.68 2.87-19.8 2.94-39.4 2.59-59.3-0.81-0.08-1.63-0.15-2.48-0.23-31-2.88-31-2.88-44.5-5.77-0.91-0.19-1.82-0.38-2.75-0.58-23.6-4.94-46.4-11.7-68.7-21-0.64-0.26-1.27-0.52-1.92-0.79-8.21-3.41-15.9-7.33-23.6-11.9-2.85-1.64-5.73-3.09-8.72-4.47-21.2-10.4-40.8-25.7-58.4-41.3-1.39-1.19-2.79-2.38-4.18-3.57-3.81-3.32-7.34-6.92-10.9-10.5-2.31-2.33-4.61-4.57-7.18-6.6-2.87-2.41-5.18-4.94-7.6-7.79-1.64-1.92-3.31-3.82-5-5.71-8.73-9.79-16.6-20.1-24.2-30.8-0.66-0.94-0.66-0.94-1.34-1.89-31.3-44.2-49.9-95-58.7-148-0.15-0.94-0.31-1.88-0.48-2.84-2.37-14-3.22-28-3.52-42.2-0.01-0.71-0.03-1.41-0.05-2.13-0.09-4.3-0.03-8.58 0.05-12.9 0.01-0.77 0.01-1.53 0.01-2.32 0.23-59 18.6-118 48-169 0.43-0.75 0.86-1.5 1.3-2.27 7-12.2 15.2-23.3 23.9-34.4 1.57-2.02 3.11-4.05 4.64-6.09 5.1-6.84 10.6-13.1 16.4-19.3 2.09-2.24 4.08-4.49 6.04-6.85 8.74-10.1 19.3-18.8 29.7-27.1 1.78-1.48 3.55-2.96 5.32-4.44 12.2-9.93 25.3-18.4 38.7-26.6 1.14-0.7 1.14-0.7 2.29-1.41 52.2-32 115-47.9 176-47.8zm-181 111c-1.76 1.38-3.54 2.75-5.32 4.11-5.86 4.51-11.4 9.01-16.6 14.4-1.89 1.93-3.87 3.7-5.92 5.46-3.46 2.99-6.76 6.03-9.88 9.38v2h-2c-2.58 2.41-4.74 5.28-7 8-0.46 0.55-0.92 1.1-1.4 1.67-51.6 61.7-79.2 141-72.7 222 6.38 67.5 33 133 80.1 182 1.22 1.39 2.43 2.78 3.63 4.19 6.25 7.18 13.1 13.6 20.4 19.8 1.37 1.2 1.37 1.2 2.76 2.42 28.3 24.7 61.6 43.2 97 55.8 2 0.71 3.99 1.44 5.98 2.18 27.6 9.86 57.2 13.4 86.3 14.9 19.7 1.06 19.7 1.06 27 8.69 10.7 15.4 10.4 38.5 10.3 56.7-0.01 1.12-0.01 1.12-0.01 2.27-0.21 38.1-6.96 75.6-19.2 112-1.13 3.37-2.21 6.76-3.27 10.2-13.5 42.6-34.2 83.7-58.4 121-0.38 0.6-0.77 1.2-1.16 1.82-1.01 1.56-2.02 3.11-3.04 4.66-1.39 2.37-1.39 2.37-1.22 4.61 1.39 2.71 3.28 4.21 5.61 6.17 3.08 2.59 5.84 5.22 8.43 8.28 4.39 5.06 9.11 9.76 13.9 14.5 0.93 0.93 1.86 1.86 2.83 2.82 2.45 2.46 4.92 4.91 7.38 7.36 2.5 2.49 4.99 4.98 7.49 7.47l11 11c3.14 3.13 6.27 6.25 9.4 9.39 0.83 0.82 1.66 1.65 2.5 2.5l19.5 19.5 2.2-2.2c2.54-2.54 5.09-5.07 7.64-7.6 1.85-1.84 3.69-3.68 5.54-5.51 0.92-0.92 1.84-1.83 2.79-2.77 4.62-4.61 9.13-9.24 13.4-14.2 1.54-1.77 3.17-3.39 4.86-5.01 3.76-3.7 7-7.77 10.3-11.9 2.18-2.66 4.44-5.22 6.75-7.76 4.15-4.55 8.1-9.25 12-14 1.95-2.33 3.93-4.62 5.95-6.9 3.55-4.04 6.88-8.21 10.2-12.5 0.6-0.78 1.2-1.55 1.81-2.35 10.8-14.1 21.2-28.4 31.1-43.1 1.41-2.08 2.83-4.14 4.27-6.2 18.1-25.9 34.4-53.1 49.2-81 0.36-0.66 0.71-1.33 1.07-2.01 14.3-27 28.4-54.1 39.6-82.6 1.38-3.47 2.8-6.91 4.23-10.4 5.47-13.1 10.5-26.3 15-39.8 1.17-3.48 2.38-6.95 3.59-10.4 10.5-30.4 19.3-61.6 25.8-93.2 0.67-3.24 1.38-6.46 2.1-9.68 9.35-42 15.2-85.9 16.6-129 0.11-2.55 0.22-5.09 0.33-7.64 3.19-80 0.26-160-33.3-234-0.41-0.92-0.83-1.84-1.26-2.79-14.3-30.9-34-61.7-58.8-85.3-1.9-1.88-1.9-1.88-3.9-4.88h-2c-0.32-0.99-0.65-1.98-1-3-1.48-1.55-1.48-1.55-3.37-3.07-3.4-2.87-6.68-5.83-9.94-8.87-5.28-4.81-10.8-8.96-16.7-13.1-1.11-0.81-2.23-1.63-3.34-2.44-7.67-5.58-15.5-10.7-23.7-15.6-1.05-0.64-2.1-1.27-3.18-1.92-29.5-17.4-61.3-27.5-94.8-34.1-1.15-0.24-1.15-0.24-2.33-0.48-79.7-15.8-170 7.95-233 58.2z" fill="#000002"/>
<path transform="translate(353 236)" d="m0 0h2.91c13.8 0.03 27.4 0.3 41.2 2.19 1.19 0.15 2.38 0.3 3.61 0.45 57.2 7.26 111 28.2 157 62.6 0.61 0.44 1.21 0.89 1.83 1.35 7.42 5.51 14.4 11.4 21.2 17.6 1.29 1.13 2.58 2.25 3.88 3.37 9.46 8.29 18.4 16.8 26.8 26.1 1.22 1.34 2.46 2.66 3.69 3.98 6.86 7.37 12.8 15.4 18.7 23.5 0.77 1.04 0.77 1.04 1.55 2.11 7.06 9.65 13.4 19.5 19.3 29.9 1.01 1.76 2.05 3.51 3.09 5.25 43.7 73.6 53.2 158 53.2 242v3.71c0 23.5-0.39 47.1-2.56 70.5-0.12 1.31-0.23 2.61-0.35 3.96-0.39 4.52-0.83 9.03-1.28 13.5-0.1 1.01-0.19 2.02-0.3 3.06-1.72 17.5-4 34.8-6.82 52.1-0.2 1.2-0.39 2.4-0.59 3.64-3.61 22.3-8 44.2-13.3 66.2-0.35 1.48-0.7 2.96-1.06 4.44-16.1 66.8-39.2 132-70 194-1.42 2.84-2.82 5.69-4.22 8.54-8.31 16.9-16.8 33.6-26.3 49.9-1.84 3.2-3.6 6.44-5.36 9.68-3.78 6.94-7.79 13.6-12.2 20.1-3.16 4.63-6.06 9.36-8.93 14.2-6.14 10.2-13 19.9-19.8 29.6-1.99 2.82-3.95 5.64-5.92 8.47-0.62 0.89-1.24 1.78-1.87 2.7-1.16 1.66-2.31 3.32-3.46 4.97-6.23 8.94-13.1 17.4-20 25.8-3.25 3.97-6.38 8.01-9.44 12.1-9.05 12.1-19.2 23.4-29.4 34.6-1.89 2.1-3.74 4.22-5.58 6.36-3.11 3.59-6.43 6.91-9.84 10.2-1.68 1.59-1.68 1.59-2.6 3.67h-2l-2 4h-2l-1 3h-2c-0.27 0.59-0.53 1.19-0.81 1.8-1.19 2.21-2.39 3.64-4.16 5.4l-1.77 1.77c-0.93 0.91-0.93 0.91-1.88 1.84-0.64 0.63-1.28 1.26-1.94 1.91-3.64 3.59-7.34 7.07-11.2 10.4-1.88 1.64-3.69 3.32-5.5 5.04-0.61 0.57-1.21 1.14-1.84 1.73-1.19 1.14-2.39 2.28-3.57 3.43-6.76 6.39-14.1 11.6-23.6 12-15-0.5-24.4-14-34.2-23.9-1.97-1.99-3.94-3.98-5.92-5.97-0.85-0.87-1.71-1.74-2.6-2.64-2.2-2.13-4.43-4.15-6.74-6.15-3.97-3.45-7.72-7.07-11.4-10.8-0.66-0.66-1.32-1.31-2-1.99-1.39-1.39-2.77-2.77-4.15-4.16-2.09-2.09-4.19-4.19-6.29-6.28-1.36-1.36-2.71-2.71-4.06-4.07-0.62-0.61-1.24-1.23-1.87-1.86-2.98-2.99-5.85-6.03-8.59-9.24-4.1-4.73-8.55-9.08-13-13.5-2.07-2.02-4.12-4.05-6.18-6.09-3.81-3.76-7.62-7.52-11.4-11.3-2.69-2.62-5.36-5.26-8.02-7.9-1.01-1-2.02-1.99-3.04-2.98-7-6.8-13.1-13.7-15-23.5 0-8.79 3.74-16 8.32-23.2 0.51-0.85 1.03-1.7 1.57-2.57 4.63-7.52 9.42-15 14.2-22.4 8.08-12.7 15.1-25.8 22-39.1 1.75-3.37 3.52-6.72 5.37-10 6.2-11.2 10.9-22.8 15.4-34.7 0.98-2.5 1.98-4.98 3-7.45 18.2-44 24.9-90.1 24.1-137-2.44-1.23-4.39-1.32-7.11-1.58-60.1-5.97-119-23.8-169-58.4-2-1.29-4-2.59-6-3.88-5.35-3.56-10.2-7.51-15.1-11.7-2.63-2.23-5.3-4.38-8-6.51-9.03-7.19-17.3-15.2-25.5-23.3-1.57-1.57-3.15-3.13-4.73-4.69-1-1-2.01-2-3.01-3-0.9-0.9-1.8-1.79-2.72-2.72-1.96-2.19-1.96-2.19-1.96-4.19h-2c-1.63-1.8-1.63-1.8-3.56-4.31-2.83-3.65-5.71-7.22-8.69-10.8-17.6-21.4-32.1-45.9-43.8-70.9-0.51-1.09-0.51-1.09-1.03-2.2-39.5-85.1-41.5-184-9.46-271 3.86-10.1 8.47-19.9 13.2-29.7 1.04-2.16 2.06-4.33 3.05-6.51 3.82-8.12 8.5-15.7 13.2-23.4 0.67-1.09 1.34-2.19 2.03-3.31 4.38-7.08 9.06-13.8 14-20.5 1.03-1.41 2.06-2.82 3.09-4.23 5.63-7.61 11.4-14.8 17.9-21.8 3.13-3.5 6.22-7.01 9.13-10.7 3.74-4.62 8.19-8.6 12.6-12.6 0.95-0.89 1.91-1.77 2.89-2.68 2.42-2.01 2.42-2.01 4.42-2.01 0.5-1.49 0.5-1.49 1-3 1.98-1.84 1.98-1.84 4.63-3.94 0.99-0.79 1.99-1.59 3.02-2.41 0.54-0.42 1.08-0.85 1.64-1.29 1.77-1.41 3.53-2.84 5.29-4.27 38.7-31.5 83.2-53.6 131-66.1 0.79-0.22 1.58-0.43 2.39-0.65 11.8-3.16 23.6-5.28 35.6-7.1 1.05-0.16 1.05-0.16 2.12-0.33 16-2.42 31.7-3.13 47.8-3.11zm-139 83.2c-0.83 0.43-1.67 0.86-2.53 1.3-22.2 11.5-43.2 26.6-61.5 43.7-1 0.9-2 1.79-3 2.69-12.4 11.2-23.7 23.2-33.7 36.6-1.27 1.68-2.57 3.34-3.87 4.99-39.8 51.3-59.7 116-59.6 181v2.76c0.02 13.2 0.22 26.2 2.18 39.2 0.13 0.88 0.26 1.77 0.39 2.68 9.89 66.3 40.8 124 86.6 172 0.71 0.75 1.42 1.5 2.15 2.27 4.36 4.5 9.05 8.46 14 12.4 2.3 1.87 4.52 3.79 6.73 5.76 50.5 44.4 118 65.6 184 68.9 10.2 0.55 20 1.37 27.4 9.27 7.53 10.6 8.56 25.8 9.52 38.4 0.11 1.36 0.11 1.36 0.23 2.76 2.14 28.4-1.49 56.4-7.23 84.2-0.24 1.21-0.24 1.21-0.49 2.45-2.99 14.9-6.92 29.3-11.6 43.8-0.33 1.02-0.66 2.04-1 3.09-13 40.2-31 78.5-52.9 115-0.48 0.8-0.97 1.6-1.47 2.43-8.6 14.2-8.6 14.2-11.5 18.6 0.3 3.56 1.92 5.28 4.39 7.74 0.72 0.73 1.45 1.46 2.19 2.21 0.81 0.79 1.61 1.58 2.43 2.4 0.84 0.84 1.68 1.67 2.54 2.54 2.3 2.3 4.61 4.59 6.92 6.88 2.41 2.39 4.82 4.8 7.22 7.2 4.56 4.54 9.12 9.08 13.7 13.6 5.2 5.16 10.4 10.3 15.6 15.5 10.7 10.6 21.4 21.3 32 31.9 3.32-1.27 5.59-2.21 7.96-4.88 0.79-0.88 0.79-0.88 1.6-1.77 0.56-0.63 1.12-1.26 1.69-1.92 5.36-5.91 10.9-11.6 16.6-17.2 5.43-5.37 10.5-10.8 15.2-16.8 2.07-2.59 4.24-5.03 6.47-7.47 3.85-4.23 7.47-8.59 11.1-13 2.72-3.31 5.51-6.55 8.32-9.78 5.42-6.29 10.6-12.7 15.7-19.3 1.53-1.99 3.07-3.97 4.61-5.95 10.6-13.8 20.6-28 30.3-42.3 2.67-3.92 5.37-7.81 8.14-11.7 4.08-5.8 7.69-11.9 11.4-18 2.02-3.33 4.07-6.64 6.15-9.94 7.67-12.2 14.6-24.6 21.4-37.3 1.72-3.19 3.5-6.35 5.28-9.51 17.3-30.5 31.1-62.7 44.2-95.2 0.47-1.15 0.93-2.3 1.41-3.48 7.71-19.2 14.2-38.8 20.6-58.5 0.25-0.77 0.5-1.53 0.75-2.32 3.78-11.7 7.3-23.5 10.5-35.4 0.23-0.85 0.46-1.71 0.7-2.59 8.24-30.7 15-62.2 19-93.7 0.24-1.77 0.47-3.55 0.7-5.32 3.33-25.2 6.22-50.3 7.3-75.7 0.11-2.21 0.22-4.41 0.33-6.61 3.9-82.3 1.62-171-38.4-246-1.04-1.96-2.05-3.93-3.05-5.91-8.71-17.1-19.1-32.8-30.9-47.9-0.73-0.95-1.46-1.89-2.21-2.87-4.68-5.95-9.67-11.6-14.8-17.1-0.96-1.07-1.92-2.14-2.88-3.21-6.05-6.68-12.2-12.9-19.1-18.8-0.86-0.76-1.73-1.51-2.62-2.28-13-11.1-26.7-21.3-41.5-29.7-1.92-1.09-3.83-2.2-5.73-3.32-29.1-16.9-61-28-94.1-33.7-0.79-0.14-1.59-0.28-2.41-0.43-65-11.2-131 0.38-190 30.4z" fill="#000002"/>
</svg>
