<svg xmlns="http://www.w3.org/2000/svg" width="128" height="128" viewBox="0 0 24 24"><path d="M21.5 24h-5a.5.5 0 0 1 0-1h5c.827 0 1.5-.673 1.5-1.5v-19c0-.827-.673-1.5-1.5-1.5h-19C1.673 1 1 1.673 1 2.5v19c0 .827.673 1.5 1.5 1.5h9a.5.5 0 0 1 0 1h-9A2.503 2.503 0 0 1 0 21.5v-19C0 1.122 1.122 0 2.5 0h19C22.878 0 24 1.122 24 2.5v19c0 1.378-1.122 2.5-2.5 2.5z"/><path d="M16.5 24a.5.5 0 0 1-.5-.5v-7a.5.5 0 0 1 .5-.5h2.609l.75-3H16.5a.5.5 0 0 1-.5-.5v-3c0-.827.673-1.5 1.5-1.5H19V5h-2.317A4.689 4.689 0 0 0 12 9.683V12.5a.5.5 0 0 1-.5.5H9v3h2.5a.5.5 0 0 1 .5.5v7a.5.5 0 0 1-1 0V17H8.5a.5.5 0 0 1-.5-.5v-4a.5.5 0 0 1 .5-.5H11V9.683A5.689 5.689 0 0 1 16.683 4H19.5a.5.5 0 0 1 .5.5v4a.5.5 0 0 1-.5.5h-2a.5.5 0 0 0-.5.5V12h3.5a.5.5 0 0 1 .485.621l-1 4A.5.5 0 0 1 19.5 17H17v6.5a.5.5 0 0 1-.5.5z"/></svg>