<svg xmlns="http://www.w3.org/2000/svg" width="128" height="128" viewBox="0 0 24 24"><path d="M19.25 24H4.75A4.756 4.756 0 0 1 0 19.25V4.75A4.756 4.756 0 0 1 4.75 0h14.5A4.756 4.756 0 0 1 24 4.75v14.5A4.756 4.756 0 0 1 19.25 24zM4.75 1.5A3.254 3.254 0 0 0 1.5 4.75v14.5a3.254 3.254 0 0 0 3.25 3.25h14.5a3.254 3.254 0 0 0 3.25-3.25V4.75a3.254 3.254 0 0 0-3.25-3.25z"/><path d="M12 18.13c-3.38 0-6.13-2.75-6.13-6.13S8.62 5.87 12 5.87s6.13 2.75 6.13 6.13-2.75 6.13-6.13 6.13zm0-10.76c-2.553 0-4.63 2.077-4.63 4.63s2.077 4.63 4.63 4.63 4.63-2.077 4.63-4.63S14.553 7.37 12 7.37zM18.359 7.37a1.73 1.73 0 0 1-1.729-1.729 1.73 1.73 0 1 1 1.729 1.729zm0-1.957a.23.23 0 0 0-.229.228c-.001.251.457.252.457 0a.23.23 0 0 0-.228-.228z"/></svg>