<svg xmlns="http://www.w3.org/2000/svg" width="128" height="128" viewBox="0 0 24 24"><path d="M11.5 24h-8A2.503 2.503 0 0 1 1 21.5v-16C1 4.121 2.122 3 3.5 3h6.01a.5.5 0 0 1 0 1H3.5C2.673 4 2 4.673 2 5.5v16c0 .827.673 1.5 1.5 1.5h8c.827 0 1.5-.673 1.5-1.5v-9.94a.5.5 0 0 1 1 0v9.94c0 1.379-1.122 2.5-2.5 2.5zM20.936 12.002c-.869 0-1.761-.231-2.474-.453a9.208 9.208 0 0 1-3.743-2.27c-1.408-1.408-2.368-3.288-2.634-5.159-.121-.845-.19-1.927.344-2.798A2.794 2.794 0 0 1 14.795 0c.168 0 .329.018.484.044.035.006.07.016.103.029.471.07.92.55.999 1.139l.354 2.644a1.377 1.377 0 0 1-.862 1.468 5.887 5.887 0 0 0 1.161 1.644 5.846 5.846 0 0 0 1.644 1.16l.043-.097a1.363 1.363 0 0 1 1.424-.765l2.644.354c.589.078 1.068.527 1.166 1.092a2.775 2.775 0 0 1-1.136 2.764c-.552.387-1.211.526-1.883.526zM14.795 1c-.613 0-1.193.324-1.513.846-.367.598-.303 1.454-.206 2.134.236 1.661 1.093 3.335 2.351 4.593a8.167 8.167 0 0 0 3.333 2.021c.613.192 2.476.771 3.484.064.466-.327.756-.884.756-1.454 0-.11-.014-.217-.031-.319-.024-.14-.156-.254-.314-.275l-2.644-.354c-.158-.017-.321.06-.385.196s-.109.283-.136.437a.5.5 0 0 1-.665.384 6.868 6.868 0 0 1-2.5-1.599 6.871 6.871 0 0 1-1.599-2.5.498.498 0 0 1 .385-.665 1.68 1.68 0 0 0 .437-.136.368.368 0 0 0 .195-.385l-.354-2.644c-.021-.158-.135-.289-.271-.312l-.024-.005A1.932 1.932 0 0 0 14.795 1z"/><path d="M9.5 6H6c-.827 0-1.5-.673-1.5-1.5 0-.275-.224-.5-.5-.5a.5.5 0 0 1 0-1c.827 0 1.5.673 1.5 1.5A.5.5 0 0 0 6 5h3.5a.5.5 0 0 1 0 1z"/></svg>