<svg xmlns="http://www.w3.org/2000/svg" xml:space="preserve" width="128" height="128" viewBox="0 0 24 24"><path fill="#ECEFF1" d="M17 11.015V2.75A2.752 2.752 0 0 0 14.25 0H2.75A2.752 2.752 0 0 0 0 2.75v15.5A2.752 2.752 0 0 0 2.75 21h9.09c-5.777-7.07.626-12.131 5.16-9.985z"/><circle cx="8.5" cy="5" r="2" fill="#90A4AE"/><path fill="#9b7bac" d="M17.053 23.852C16.433 23.391 11 19.25 11 15.738A3.749 3.749 0 0 1 14.75 12c1.063 0 2.054.446 2.75 1.194A3.756 3.756 0 0 1 20.25 12 3.749 3.749 0 0 1 24 15.738c0 3.512-5.433 7.653-6.053 8.114a.75.75 0 0 1-.894 0z"/><path fill="#90A4AE" d="M12.5 11.025v-.275A2.752 2.752 0 0 0 9.75 8h-2.5a2.752 2.752 0 0 0-2.75 2.75v.5c0 .414.336.75.75.75h5.833a5.291 5.291 0 0 1 1.417-.975zM8 15H5a1 1 0 0 1 0-2h3a1 1 0 0 1 0 2zM8 18H5a1 1 0 0 1 0-2h3a1 1 0 0 1 0 2z"/></svg>