<svg xmlns="http://www.w3.org/2000/svg" width="128" height="128" viewBox="0 0 24 24"><path d="M7.733 21.75c-2.68 0-5.274-.751-7.502-2.173a.502.502 0 0 1 .331-.918c.325.041.664.06 1.066.06a9.122 9.122 0 0 0 4.502-1.193 5.252 5.252 0 0 1-3.535-3.393.5.5 0 0 1 .443-.656A5.185 5.185 0 0 1 .92 9.315c0-.176.093-.365.245-.456s.34-.12.494-.035c.086.047.174.09.262.131a5.133 5.133 0 0 1-.251-5.608.498.498 0 0 1 .819-.066 12.941 12.941 0 0 0 8.743 4.658 6.193 6.193 0 0 1-.021-.521c0-2.85 2.338-5.168 5.212-5.168 1.339 0 2.638.519 3.605 1.432a8.924 8.924 0 0 0 2.574-1.015.501.501 0 0 1 .73.583 5.084 5.084 0 0 1-.792 1.521c.258-.086.511-.183.759-.29a.5.5 0 0 1 .612.74 9.883 9.883 0 0 1-2.267 2.391c.004.117.006.236.006.356.004 6.774-5.203 13.782-13.917 13.782zm-5.192-2.073a12.995 12.995 0 0 0 5.192 1.073c8.087 0 12.92-6.5 12.92-12.783 0-.197-.007-.389-.017-.578a.503.503 0 0 1 .212-.434 8.488 8.488 0 0 0 1.176-.997c-.386.093-.78.165-1.179.215a.5.5 0 0 1-.317-.926 4.216 4.216 0 0 0 1.183-1.037 10.18 10.18 0 0 1-1.747.508.491.491 0 0 1-.46-.146 4.26 4.26 0 0 0-3.082-1.321c-2.323 0-4.212 1.87-4.212 4.168 0 .357.032.669.097.953a.5.5 0 0 1-.104.433c-.1.12-.25.194-.407.179a13.959 13.959 0 0 1-9.573-4.483 4.08 4.08 0 0 0-.267 1.458c0 1.393.699 2.688 1.871 3.462a.5.5 0 0 1-.286.918 5.061 5.061 0 0 1-1.546-.277 4.218 4.218 0 0 0 3.302 3.351.499.499 0 0 1 .031.973 5.523 5.523 0 0 1-1.461.17 4.258 4.258 0 0 0 3.618 2.173.5.5 0 0 1 .295.895 10.086 10.086 0 0 1-5.239 2.053z"/></svg>